<?xml version="1.0" encoding="UTF-8" standalone="no"?><!DOCTYPE svg PUBLIC "-//W3C//DTD SVG 1.1//EN" "http://www.w3.org/Graphics/SVG/1.1/DTD/svg11.dtd"><svg width="100%" height="100%" viewBox="0 0 27 21" version="1.1" xmlns="http://www.w3.org/2000/svg" xmlns:xlink="http://www.w3.org/1999/xlink" xml:space="preserve" xmlns:serif="http://www.serif.com/" style="fill-rule:evenodd;clip-rule:evenodd;stroke-linejoin:round;stroke-miterlimit:2;"><path d="M10.736,20.657l-5.469,-5.615c-0,0 -2.792,-5.888 -4.847,-11.903c-0.144,-0.422 -0.285,-0.844 -0.42,-1.264c9.892,-2.771 18.229,-2.119 26.04,-0.312c-1.19,4.472 -5.425,13.117 -5.425,13.117l-3.803,2.321l0.709,-13.573c0.016,-0.012 0.032,-0.024 0.049,-0.037c4.321,-0.424 7.506,-1.326 7.131,-1.689c-0.551,-0.533 -5.451,-1.282 -11.394,-1.266c-6.304,0.017 -11.226,0.853 -11.226,1.547c-0,0.568 2.839,1.324 7.668,1.561c0.017,0.013 0.035,0.025 0.053,0.037l0.934,17.076Z"/><path d="M3.47,2.011c0.036,0.022 0.1,0.045 0.148,0.066c0.308,0.142 0.862,0.274 1.645,0.414c0.561,0.099 1.235,0.202 2.018,0.309c0.883,0.122 3.126,0.434 3.122,0.48c-0.005,0.045 -2.158,-0.074 -3.012,-0.151c-1.237,-0.113 -2.218,-0.233 -2.922,-0.365c-0.578,-0.108 -0.977,-0.232 -1.189,-0.36c-0.217,-0.131 -0.285,-0.293 -0.271,-0.437c0.007,-0.078 0.04,-0.159 0.109,-0.237c0.063,-0.071 0.165,-0.147 0.307,-0.216c0.325,-0.161 0.899,-0.274 1.661,-0.399c0.554,-0.09 1.275,-0.178 2.007,-0.221c2.844,-0.17 2.934,-0.087 2.935,-0.042c0.001,0.046 -2.101,0.23 -2.968,0.336c-0.439,0.054 -0.849,0.112 -1.226,0.173c-0.946,0.152 -1.675,0.325 -2.096,0.504c-0.103,0.044 -0.185,0.086 -0.243,0.13c-0.007,0.005 -0.017,0.011 -0.025,0.016Zm-0.014,0.009c-0.008,0.007 -0.012,0.012 -0.006,0.016c0.006,0.003 0.006,-0.007 0.006,-0.016Zm0.001,-0.017c0.002,-0.016 0.003,-0.04 -0.008,-0.032c-0.012,0.01 -0.007,0.021 0.008,0.032Z"/><path d="M10.198,1.877c0.015,0.056 0.439,0.075 0.738,0.11c0.356,0.041 1.415,0.162 1.414,0.185c-0.002,0.023 -1.07,-0.004 -1.429,-0.028c-0.455,-0.03 -0.754,-0.063 -0.928,-0.094c-0.111,-0.021 -0.178,-0.046 -0.208,-0.066c-0.068,-0.044 -0.069,-0.1 -0.054,-0.144c0.008,-0.026 0.035,-0.063 0.095,-0.088c0.088,-0.037 0.317,-0.076 0.637,-0.102c0.258,-0.022 0.577,-0.037 0.926,-0.046c0.293,-0.008 0.607,-0.01 0.925,-0.008c0.474,0.002 1.435,0.002 1.435,0.024c-0,0.023 -1.009,0.041 -1.481,0.064c-0.317,0.016 -0.658,0.027 -0.949,0.042c-0.346,0.019 -1.138,0.086 -1.121,0.151Z"/><ellipse cx="13.529" cy="1.897" rx="1.856" ry="0.113"/><path d="M18.783,1.759c-0.115,-0.152 -0.527,-0.159 -1.267,-0.208c-0.647,-0.043 -3.007,-0.14 -3.006,-0.172c0,-0.033 1.81,-0.005 2.459,0.01c0.753,0.016 1.292,0.056 1.629,0.108c0.231,0.035 0.376,0.084 0.44,0.128c0.051,0.037 0.075,0.082 0.086,0.12c0.016,0.056 0.012,0.113 -0.019,0.17c-0.021,0.038 -0.069,0.089 -0.155,0.129c-0.105,0.05 -0.29,0.104 -0.554,0.155c-0.252,0.049 -0.577,0.097 -0.974,0.142c-0.412,0.047 -0.908,0.066 -1.469,0.104c-0.993,0.067 -2.949,0.032 -2.95,-0.001c-0.001,-0.032 1.985,-0.08 2.976,-0.182c0.557,-0.057 1.087,-0.089 1.496,-0.143c0.39,-0.052 0.648,-0.114 0.896,-0.162c0.116,-0.023 0.476,-0.115 0.412,-0.198Z"/><path d="M22.655,1.74c0.016,-0.015 0.084,-0.106 -0.384,-0.237c-0.425,-0.119 -1.095,-0.172 -1.843,-0.244c-0.5,-0.049 -1.124,-0.092 -1.791,-0.144c-0.623,-0.047 -1.321,-0.097 -2.101,-0.148c-0.932,-0.061 -2.122,-0.057 -3.297,-0.121c-0.037,-0.001 -0.066,-0.032 -0.065,-0.069c0.002,-0.037 0.032,-0.066 0.069,-0.065c1.178,0.014 2.229,0.031 3.164,0.058c0.784,0.023 1.485,0.051 2.11,0.084c0.671,0.035 1.255,0.075 1.758,0.12c0.763,0.069 1.341,0.147 1.758,0.227c0.4,0.077 0.659,0.162 0.799,0.243c0.161,0.093 0.209,0.206 0.203,0.3c-0.005,0.073 -0.04,0.154 -0.129,0.227c-0.096,0.079 -0.276,0.163 -0.529,0.241c-0.506,0.157 -1.327,0.315 -2.316,0.468c-1.035,0.159 -3.558,0.44 -3.563,0.404c-0.005,-0.037 2.493,-0.467 3.52,-0.658c0.965,-0.18 1.767,-0.355 2.259,-0.522c0.167,-0.056 0.306,-0.097 0.378,-0.164Z"/><path d="M7.49,1.893c0.001,0.156 0.504,0.311 0.893,0.381c0.277,0.049 0.597,0.098 0.953,0.147c0.433,0.059 0.919,0.118 1.447,0.172c1.078,0.112 3.71,0.125 3.71,0.171c-0,0.045 -1.491,0.109 -2.15,0.1c-0.744,-0.01 -1.441,-0.037 -2.07,-0.081c-0.628,-0.045 -1.188,-0.104 -1.654,-0.177c-0.468,-0.073 -0.842,-0.162 -1.104,-0.249c-0.243,-0.081 -0.4,-0.173 -0.469,-0.253c-0.089,-0.103 -0.104,-0.207 -0.065,-0.307c0.031,-0.077 0.114,-0.176 0.295,-0.246c0.19,-0.073 0.519,-0.144 1.01,-0.196c0.549,-0.057 2.453,-0.096 2.455,-0.051c0.003,0.045 -1.811,0.199 -2.349,0.292c-0.394,0.068 -0.904,0.147 -0.902,0.297Z"/><path d="M9.805,3.507c-0,0 0.065,0.621 0.161,1.629c0.064,0.669 0.143,1.505 0.223,2.444c0.037,0.434 0.074,0.888 0.109,1.358c0.034,0.442 0.066,0.897 0.095,1.359c0.026,0.404 0.049,0.814 0.069,1.225c0.03,0.613 0.054,1.23 0.076,1.837c0.046,1.273 0.082,2.504 0.112,3.575c0.06,2.093 0.091,3.577 0.091,3.577l0.002,0.049l-0.097,0.005l-0.003,-0.049c0,-0 -0.123,-1.479 -0.282,-3.566c-0.081,-1.07 -0.174,-2.297 -0.26,-3.568c-0.041,-0.606 -0.082,-1.222 -0.116,-1.835c-0.023,-0.411 -0.042,-0.821 -0.059,-1.225c-0.019,-0.463 -0.034,-0.919 -0.047,-1.362c-0.013,-0.471 -0.024,-0.927 -0.032,-1.362c-0.018,-0.942 -0.026,-1.783 -0.033,-2.454c-0.009,-1.013 -0.009,-1.637 -0.009,-1.637Z"/><path d="M17.534,3.431c0,0 0.008,0.496 0.012,1.301c0.002,0.534 0.004,1.202 -0.002,1.951c-0.002,0.346 -0.007,0.708 -0.015,1.083c-0.008,0.352 -0.017,0.714 -0.03,1.082c-0.011,0.321 -0.026,0.647 -0.043,0.973c-0.027,0.488 -0.059,0.977 -0.093,1.459c-0.07,1.009 -0.147,1.984 -0.215,2.834c-0.132,1.659 -0.237,2.833 -0.237,2.833l-0.002,0.049l-0.098,-0.005l0.002,-0.049c0,0 0.013,-1.179 0.046,-2.842c0.017,-0.852 0.037,-1.83 0.067,-2.842c0.014,-0.483 0.03,-0.973 0.052,-1.46c0.015,-0.327 0.033,-0.652 0.054,-0.973c0.023,-0.367 0.05,-0.729 0.078,-1.08c0.029,-0.373 0.06,-0.735 0.092,-1.079c0.068,-0.746 0.137,-1.41 0.192,-1.941c0.083,-0.801 0.14,-1.294 0.14,-1.294Z"/><path d="M15.365,3.913c-0,-0 0.036,0.411 0.085,1.082c0.033,0.444 0.073,0.999 0.111,1.622c0.017,0.288 0.033,0.59 0.046,0.902c0.013,0.293 0.025,0.595 0.033,0.902c0.007,0.268 0.011,0.539 0.012,0.812c0.002,0.406 -0.003,0.815 -0.009,1.217c-0.012,0.844 -0.033,1.659 -0.052,2.369c-0.037,1.387 -0.075,2.368 -0.075,2.368l0.001,0.049l-0.098,0.001l-0,-0.049c-0,0 -0.055,-0.981 -0.118,-2.367c-0.032,-0.709 -0.068,-1.523 -0.096,-2.367c-0.013,-0.402 -0.025,-0.81 -0.031,-1.217c-0.004,-0.273 -0.004,-0.544 -0.002,-0.812c0.002,-0.307 0.008,-0.609 0.016,-0.902c0.008,-0.312 0.018,-0.614 0.03,-0.902c0.026,-0.625 0.056,-1.18 0.08,-1.625c0.038,-0.671 0.067,-1.083 0.067,-1.083Z"/><path d="M13.664,3.837c-0,-0 0.038,0.153 0.091,0.414c0.036,0.172 0.078,0.38 0.119,0.623c0.019,0.111 0.036,0.225 0.051,0.346c0.015,0.113 0.028,0.228 0.037,0.347c0.009,0.103 0.014,0.207 0.017,0.313c0.004,0.157 0.001,0.314 -0.003,0.47c-0.008,0.327 -0.025,0.64 -0.04,0.915c-0.03,0.54 -0.062,0.917 -0.062,0.917l0.002,0.048l-0.098,0.004l-0.001,-0.049c-0,0 -0.06,-0.373 -0.13,-0.909c-0.036,-0.273 -0.076,-0.584 -0.108,-0.91c-0.016,-0.155 -0.03,-0.312 -0.038,-0.469c-0.005,-0.105 -0.007,-0.209 -0.006,-0.313c0,-0.119 0.005,-0.235 0.011,-0.348c0.006,-0.122 0.015,-0.238 0.025,-0.35c0.023,-0.244 0.05,-0.455 0.072,-0.629c0.034,-0.264 0.061,-0.42 0.061,-0.42Z"/><path d="M11.775,3.83c-0,-0 0.049,0.353 0.119,0.931c0.046,0.382 0.104,0.859 0.16,1.397c0.026,0.248 0.051,0.508 0.075,0.777c0.021,0.253 0.042,0.513 0.06,0.777c0.015,0.231 0.028,0.466 0.037,0.701c0.015,0.351 0.022,0.704 0.029,1.052c0.014,0.729 0.018,1.433 0.021,2.048c0.006,1.199 -0.001,2.048 -0.001,2.048l0.002,0.049l-0.098,0.004l-0.002,-0.048c0,-0 -0.085,-0.845 -0.19,-2.04c-0.054,-0.612 -0.115,-1.313 -0.169,-2.041c-0.026,-0.347 -0.051,-0.699 -0.069,-1.05c-0.013,-0.235 -0.021,-0.47 -0.028,-0.701c-0.007,-0.265 -0.01,-0.526 -0.012,-0.78c-0.001,-0.27 -0,-0.531 0.003,-0.78c0.006,-0.541 0.019,-1.021 0.03,-1.406c0.016,-0.582 0.033,-0.938 0.033,-0.938Z"/></svg>