<?xml version="1.0" encoding="UTF-8" standalone="no"?><!DOCTYPE svg PUBLIC "-//W3C//DTD SVG 1.1//EN" "http://www.w3.org/Graphics/SVG/1.1/DTD/svg11.dtd"><svg width="100%" height="100%" viewBox="0 0 27 24" version="1.1" xmlns="http://www.w3.org/2000/svg" xmlns:xlink="http://www.w3.org/1999/xlink" xml:space="preserve" xmlns:serif="http://www.serif.com/" style="fill-rule:evenodd;clip-rule:evenodd;stroke-linejoin:round;stroke-miterlimit:2;"><path d="M-0,1.875c9.892,-2.771 18.229,-2.119 26.04,-0.312c-1.19,4.472 -5.425,13.117 -5.425,13.117l-4.561,2.783l-2.956,5.619l-7.831,-8.04c-0,0 -2.792,-5.888 -4.847,-11.903c-0.144,-0.422 -0.285,-0.844 -0.42,-1.264Z"/><path d="M13.307,0.436c5.943,-0.016 10.843,0.717 11.394,1.238c0.492,0.466 -5.166,1.843 -11.471,1.872c-6.917,0.032 -11.149,-0.92 -11.149,-1.598c-0,-0.678 4.922,-1.495 11.226,-1.512Z" style="fill:#fff;"/><path d="M9.802,3.508c2.528,0.364 5.109,0.223 7.72,-0.151l-0.726,13.574l-0.759,0.492l-2.968,5.52l-2.314,-2.398l-0.953,-17.037Z" style="fill:#fff;"/><path d="M3.47,2.011c0.036,0.022 0.1,0.045 0.148,0.066c0.308,0.142 0.862,0.274 1.645,0.414c0.561,0.099 1.235,0.202 2.018,0.309c0.883,0.122 1.9,0.253 3.048,0.39c0.045,0.004 0.078,0.044 0.074,0.09c-0.005,0.045 -0.045,0.078 -0.09,0.074c-1.092,-0.076 -2.068,-0.148 -2.922,-0.225c-1.237,-0.113 -2.218,-0.233 -2.922,-0.365c-0.578,-0.108 -0.977,-0.232 -1.189,-0.36c-0.217,-0.131 -0.285,-0.293 -0.271,-0.437c0.007,-0.078 0.04,-0.159 0.109,-0.237c0.063,-0.071 0.165,-0.147 0.307,-0.216c0.325,-0.161 0.899,-0.319 1.661,-0.444c0.554,-0.091 1.209,-0.166 1.941,-0.218c0.878,-0.062 1.864,-0.088 2.917,-0.08c0.045,-0.001 0.083,0.035 0.084,0.08c0.001,0.046 -0.035,0.083 -0.08,0.084c-1.046,0.054 -2.021,0.146 -2.888,0.252c-0.439,0.054 -0.849,0.112 -1.226,0.173c-0.946,0.152 -1.675,0.325 -2.096,0.504c-0.103,0.044 -0.185,0.086 -0.243,0.13c-0.007,0.005 -0.017,0.011 -0.025,0.016Zm-0.014,0.009c-0.008,0.007 -0.012,0.012 -0.006,0.016c0.006,0.003 0.006,-0.007 0.006,-0.016Zm0.001,-0.017c0.002,-0.016 0.003,-0.04 -0.008,-0.032c-0.012,0.01 -0.007,0.021 0.008,0.032Z"/><path d="M11.804,1.993c0.27,0.046 0.629,0.099 1.092,0.158c0.034,0.003 0.059,0.033 0.057,0.066c-0.003,0.034 -0.033,0.06 -0.067,0.057c-0.927,-0.029 -1.451,-0.07 -1.681,-0.118c-0.101,-0.021 -0.159,-0.053 -0.186,-0.075c-0.027,-0.021 -0.04,-0.046 -0.05,-0.068c-0.022,-0.051 -0.015,-0.101 0.017,-0.152c0.016,-0.026 0.05,-0.058 0.11,-0.083c0.047,-0.02 0.123,-0.04 0.225,-0.058c0.153,-0.028 0.371,-0.057 0.634,-0.074c0.188,-0.013 0.4,-0.02 0.627,-0.023c0.237,-0.003 0.491,0 0.752,0.008c0.369,0.011 0.751,0.035 1.126,0.058c0.034,-0 0.061,0.028 0.061,0.062c0,0.034 -0.028,0.061 -0.062,0.061c-0.348,0.021 -0.701,0.049 -1.045,0.073c-0.24,0.017 -0.474,0.034 -0.695,0.049c-0.206,0.014 -0.4,0.027 -0.578,0.038c-0.12,0.008 -0.233,0.014 -0.337,0.021Zm-0.58,0.053c-0.016,0.001 -0.027,0.004 -0.023,0.011c0.007,0.012 0.015,0.003 0.023,-0.011Z"/><path d="M18.845,1.88c-0.066,-0.013 -0.139,-0.025 -0.218,-0.038c-0.324,-0.053 -0.75,-0.108 -1.283,-0.167c-0.539,-0.06 -1.185,-0.127 -1.947,-0.193c-0.046,-0.002 -0.081,-0.04 -0.079,-0.085c0.002,-0.046 0.04,-0.081 0.086,-0.079c0.768,0.002 1.42,0.009 1.964,0.03c0.546,0.021 0.982,0.053 1.315,0.09c0.313,0.035 0.538,0.079 0.68,0.122c0.111,0.034 0.183,0.077 0.225,0.113c0.07,0.061 0.093,0.129 0.098,0.191c0.006,0.079 -0.021,0.172 -0.129,0.252c-0.08,0.06 -0.263,0.132 -0.549,0.191c-0.225,0.046 -0.523,0.092 -0.889,0.132c-0.373,0.04 -0.816,0.076 -1.327,0.105c-0.903,0.052 -2.015,0.082 -3.31,0.101c-0.046,0.002 -0.084,-0.033 -0.087,-0.078c-0.002,-0.046 0.033,-0.084 0.079,-0.086c1.288,-0.103 2.39,-0.215 3.286,-0.315c0.502,-0.057 0.938,-0.111 1.305,-0.162c0.313,-0.043 0.574,-0.084 0.78,-0.124Zm0.407,-0.076c0.039,-0.012 0.058,-0.027 0.044,-0.046c-0.022,-0.031 -0.036,0.003 -0.044,0.046Z"/><path d="M22.713,1.879c-0.009,-0.009 -0.024,-0.023 -0.036,-0.032c-0.018,-0.015 -0.04,-0.028 -0.064,-0.042c-0.049,-0.028 -0.107,-0.055 -0.175,-0.082c-0.232,-0.094 -0.567,-0.182 -0.999,-0.272c-0.432,-0.089 -0.958,-0.18 -1.58,-0.272c-0.478,-0.07 -1.011,-0.143 -1.599,-0.216c-0.722,-0.091 -1.524,-0.186 -2.41,-0.279c-0.045,-0.003 -0.08,-0.042 -0.076,-0.088c0.003,-0.045 0.042,-0.079 0.088,-0.076c0.892,0.034 1.701,0.071 2.429,0.12c0.596,0.041 1.136,0.087 1.619,0.139c0.637,0.069 1.177,0.147 1.618,0.233c0.469,0.092 0.829,0.195 1.079,0.3c0.327,0.136 0.489,0.306 0.53,0.453c0.036,0.131 0.012,0.271 -0.113,0.407c-0.143,0.154 -0.464,0.327 -0.983,0.488c-0.806,0.249 -2.116,0.502 -3.947,0.765l-0.482,0.066c-0.045,0.007 -0.087,-0.023 -0.094,-0.068c-0.008,-0.045 0.023,-0.087 0.068,-0.095l0.476,-0.093c1.473,-0.288 2.598,-0.554 3.389,-0.794c0.337,-0.103 0.612,-0.2 0.825,-0.293c0.212,-0.093 0.358,-0.175 0.431,-0.26c0.002,-0.002 0.004,-0.005 0.006,-0.009Z"/><path d="M7.739,1.916c0.017,0.009 0.04,0.02 0.056,0.03c0.115,0.073 0.297,0.142 0.538,0.217c0.353,0.108 0.825,0.219 1.41,0.325c0.612,0.111 1.34,0.222 2.182,0.311c0.045,0.003 0.08,0.042 0.077,0.087c-0.003,0.046 -0.042,0.08 -0.087,0.078c-0.53,-0.008 -1.016,-0.025 -1.459,-0.054c-0.56,-0.038 -1.048,-0.089 -1.459,-0.156c-0.563,-0.091 -0.985,-0.207 -1.253,-0.327c-0.161,-0.073 -0.273,-0.152 -0.34,-0.226c-0.084,-0.093 -0.118,-0.187 -0.115,-0.276c0.004,-0.131 0.086,-0.29 0.33,-0.401c0.217,-0.097 0.593,-0.187 1.144,-0.235c0.441,-0.038 0.996,-0.05 1.674,-0.04c0.046,-0.002 0.084,0.034 0.086,0.079c0.002,0.046 -0.034,0.084 -0.079,0.086c-0.576,0.054 -1.058,0.12 -1.456,0.186c-0.397,0.066 -0.706,0.135 -0.932,0.207c-0.115,0.037 -0.255,0.073 -0.317,0.109Zm-0.01,0.006c-0.022,0.016 -0.029,0.031 -0.012,0.046c0.012,0.012 0.012,-0.026 0.012,-0.039c-0,-0.002 -0,-0.004 0,-0.007Zm0.001,-0.012c0.001,-0.013 0,-0.025 -0.008,-0.02c-0.008,0.006 -0.003,0.012 0.008,0.02Z"/><path d="M9.805,3.507c-0,0 0.065,0.621 0.161,1.629c0.064,0.669 0.143,1.505 0.223,2.444c0.037,0.434 0.074,0.888 0.109,1.358c0.034,0.442 0.066,0.897 0.095,1.359c0.026,0.404 0.049,0.814 0.069,1.225c0.03,0.613 0.054,1.23 0.076,1.837c0.046,1.273 0.082,2.504 0.112,3.575c0.06,2.093 0.091,3.577 0.091,3.577l0.002,0.049l-0.097,0.005l-0.003,-0.049c0,-0 -0.123,-1.479 -0.282,-3.566c-0.081,-1.07 -0.174,-2.297 -0.26,-3.568c-0.041,-0.606 -0.082,-1.222 -0.116,-1.835c-0.023,-0.411 -0.042,-0.821 -0.059,-1.225c-0.019,-0.463 -0.034,-0.919 -0.047,-1.362c-0.013,-0.471 -0.024,-0.927 -0.032,-1.362c-0.018,-0.942 -0.026,-1.783 -0.033,-2.454c-0.009,-1.013 -0.009,-1.637 -0.009,-1.637Z"/><path d="M17.534,3.431c0,0 0.008,0.496 0.012,1.301c0.002,0.534 0.004,1.202 -0.002,1.951c-0.002,0.346 -0.007,0.708 -0.015,1.083c-0.008,0.352 -0.017,0.714 -0.03,1.082c-0.011,0.321 -0.026,0.647 -0.043,0.973c-0.027,0.488 -0.059,0.977 -0.093,1.459c-0.07,1.009 -0.147,1.984 -0.215,2.834c-0.132,1.659 -0.237,2.833 -0.237,2.833l-0.002,0.049l-0.098,-0.005l0.002,-0.049c0,0 0.013,-1.179 0.046,-2.842c0.017,-0.852 0.037,-1.83 0.067,-2.842c0.014,-0.483 0.03,-0.973 0.052,-1.46c0.015,-0.327 0.033,-0.652 0.054,-0.973c0.023,-0.367 0.05,-0.729 0.078,-1.08c0.029,-0.373 0.06,-0.735 0.092,-1.079c0.068,-0.746 0.137,-1.41 0.192,-1.941c0.083,-0.801 0.14,-1.294 0.14,-1.294Z"/><path d="M15.365,3.913c-0,-0 0.036,0.411 0.085,1.082c0.033,0.444 0.073,0.999 0.111,1.622c0.017,0.288 0.033,0.59 0.046,0.902c0.013,0.293 0.025,0.595 0.033,0.902c0.007,0.268 0.011,0.539 0.012,0.812c0.002,0.406 -0.003,0.815 -0.009,1.217c-0.012,0.844 -0.033,1.659 -0.052,2.369c-0.037,1.387 -0.075,2.368 -0.075,2.368l0.001,0.049l-0.098,0.001l-0,-0.049c-0,0 -0.055,-0.981 -0.118,-2.367c-0.032,-0.709 -0.068,-1.523 -0.096,-2.367c-0.013,-0.402 -0.025,-0.81 -0.031,-1.217c-0.004,-0.273 -0.004,-0.544 -0.002,-0.812c0.002,-0.307 0.008,-0.609 0.016,-0.902c0.008,-0.312 0.018,-0.614 0.03,-0.902c0.026,-0.625 0.056,-1.18 0.08,-1.625c0.038,-0.671 0.067,-1.083 0.067,-1.083Z"/><path d="M13.664,3.837c-0,-0 0.038,0.153 0.091,0.414c0.036,0.172 0.078,0.38 0.119,0.623c0.019,0.111 0.036,0.225 0.051,0.346c0.015,0.113 0.028,0.228 0.037,0.347c0.009,0.103 0.014,0.207 0.017,0.313c0.004,0.157 0.001,0.314 -0.003,0.47c-0.008,0.327 -0.025,0.64 -0.04,0.915c-0.03,0.54 -0.062,0.917 -0.062,0.917l0.002,0.048l-0.098,0.004l-0.001,-0.049c-0,0 -0.06,-0.373 -0.13,-0.909c-0.036,-0.273 -0.076,-0.584 -0.108,-0.91c-0.016,-0.155 -0.03,-0.312 -0.038,-0.469c-0.005,-0.105 -0.007,-0.209 -0.006,-0.313c0,-0.119 0.005,-0.235 0.011,-0.348c0.006,-0.122 0.015,-0.238 0.025,-0.35c0.023,-0.244 0.05,-0.455 0.072,-0.629c0.034,-0.264 0.061,-0.42 0.061,-0.42Z"/><path d="M11.775,3.83c-0,-0 0.049,0.353 0.119,0.931c0.046,0.382 0.104,0.859 0.16,1.397c0.026,0.248 0.051,0.508 0.075,0.777c0.021,0.253 0.042,0.513 0.06,0.777c0.015,0.231 0.028,0.466 0.037,0.701c0.015,0.351 0.022,0.704 0.029,1.052c0.014,0.729 0.018,1.433 0.021,2.048c0.006,1.199 -0.001,2.048 -0.001,2.048l0.002,0.049l-0.098,0.004l-0.002,-0.048c0,-0 -0.085,-0.845 -0.19,-2.04c-0.054,-0.612 -0.115,-1.313 -0.169,-2.041c-0.026,-0.347 -0.051,-0.699 -0.069,-1.05c-0.013,-0.235 -0.021,-0.47 -0.028,-0.701c-0.007,-0.265 -0.01,-0.526 -0.012,-0.78c-0.001,-0.27 -0,-0.531 0.003,-0.78c0.006,-0.541 0.019,-1.021 0.03,-1.406c0.016,-0.582 0.033,-0.938 0.033,-0.938Z"/><path d="M9.738,3.466c0.088,0.007 0.176,0 0.285,-0.003c0.079,-0.003 0.159,-0.007 0.249,-0.009c0.054,-0.001 0.108,-0.001 0.165,0c0.066,0.002 0.134,0.006 0.205,0.01c0.257,0.012 0.539,0.02 0.828,0.021c0.606,0.002 1.242,-0.016 1.744,-0.017c0.811,0.003 1.61,-0.03 2.358,-0.086c0.38,-0.028 0.747,-0.064 1.095,-0.102c0.161,-0.017 0.316,-0.045 0.469,-0.052c0.045,-0.002 0.088,-0.001 0.133,0.004c0.057,0.006 0.104,0.016 0.159,0.029c0.062,0.015 0.104,0.031 0.164,0.048c-0.053,0.037 -0.088,0.067 -0.144,0.101c-0.045,0.028 -0.085,0.049 -0.134,0.071c-0.03,0.014 -0.059,0.026 -0.091,0.036c-0.03,0.01 -0.06,0.016 -0.091,0.022c-0.262,0.051 -0.541,0.08 -0.829,0.113c-0.946,0.108 -2.008,0.163 -3.089,0.164c-0.705,-0.006 -1.672,0.033 -2.454,-0.028c-0.13,-0.01 -0.255,-0.02 -0.372,-0.042c-0.055,-0.01 -0.107,-0.023 -0.157,-0.039c-0.095,-0.029 -0.178,-0.06 -0.257,-0.098c-0.095,-0.045 -0.167,-0.092 -0.236,-0.143Z" style="fill:#fff;"/><path d="M12.69,6.772l0.367,-0.015c-0,-0 0.122,3.725 0.207,6.951c0.066,2.463 0.107,4.635 0.107,4.635l-0.074,0.003c-0,-0 -0.131,-2.168 -0.262,-4.629c-0.171,-3.223 -0.345,-6.945 -0.345,-6.945Z" style="fill:#fff;"/><path d="M11.159,11.536l0.479,-0.022c0,0 0.115,3.23 0.187,6.029c0.055,2.137 0.084,4.02 0.084,4.02l-0.098,0.005c-0,-0 -0.145,-1.878 -0.285,-4.012c-0.184,-2.793 -0.367,-6.02 -0.367,-6.02Z" style="fill:#fff;"/></svg>