<?xml version="1.0" encoding="UTF-8" standalone="no"?><!DOCTYPE svg PUBLIC "-//W3C//DTD SVG 1.1//EN" "http://www.w3.org/Graphics/SVG/1.1/DTD/svg11.dtd"><svg width="100%" height="100%" viewBox="0 0 39 14" version="1.1" xmlns="http://www.w3.org/2000/svg" xmlns:xlink="http://www.w3.org/1999/xlink" xml:space="preserve" xmlns:serif="http://www.serif.com/" style="fill-rule:evenodd;clip-rule:evenodd;stroke-linejoin:round;stroke-miterlimit:2;"><g><path d="M16.212,5.705c-0,0 5.417,1.992 8.908,0.615c8.555,-3.374 13.607,-0.584 13.607,-0.584c-0,0 -5.77,-2.329 -14.099,1.997c-3.15,1.636 -8.416,-2.028 -8.416,-2.028Z"/><path d="M5.939,1.053c0,0 5.417,1.991 8.908,0.614c8.555,-3.374 13.607,-0.583 13.607,-0.583c0,-0 -5.769,-2.33 -14.098,1.996c-3.151,1.637 -8.417,-2.027 -8.417,-2.027Z"/><path d="M0,11.116c0,0 5.417,1.991 8.908,0.614c8.555,-3.374 13.607,-0.583 13.607,-0.583c-0,-0 -5.77,-2.33 -14.099,1.996c-3.15,1.636 -8.416,-2.027 -8.416,-2.027Z"/></g></svg>