<?xml version="1.0" encoding="UTF-8" standalone="no"?><!DOCTYPE svg PUBLIC "-//W3C//DTD SVG 1.1//EN" "http://www.w3.org/Graphics/SVG/1.1/DTD/svg11.dtd"><svg width="100%" height="100%" viewBox="0 0 28 22" version="1.1" xmlns="http://www.w3.org/2000/svg" xmlns:xlink="http://www.w3.org/1999/xlink" xml:space="preserve" xmlns:serif="http://www.serif.com/" style="fill-rule:evenodd;clip-rule:evenodd;stroke-linejoin:round;stroke-miterlimit:2;"><path d="M24.684,5.302c0.454,0.096 0.906,0.197 1.356,0.301c-1.19,4.472 -5.425,13.117 -5.425,13.117l-6.941,2.783l-8.407,-2.421c-0,0 -2.792,-5.888 -4.847,-11.903c-0.144,-0.422 -0.285,-0.844 -0.42,-1.264c0.198,-0.056 0.395,-0.11 0.592,-0.162c-0.098,-0.399 -0.153,-0.788 -0.161,-1.166c-0.023,-0.979 0.179,-1.783 0.727,-2.297c0.014,-0.018 0.04,-0.022 0.059,-0.009c0.018,0.014 0.022,0.04 0.008,0.059c-0.28,0.577 -0.22,1.282 0.104,2.052c0.036,0.086 0.076,0.171 0.119,0.256c0.002,-0.107 0.007,-0.214 0.016,-0.32c0.091,-1.154 0.448,-2.142 1.184,-2.765c0.015,-0.018 0.041,-0.021 0.059,-0.006c0.018,0.015 0.021,0.041 0.006,0.059c-0.4,0.727 -0.418,1.632 -0.126,2.585c0.041,0.132 0.089,0.261 0.145,0.388c-0.004,-0.242 0.009,-0.481 0.039,-0.716c0.147,-1.162 0.564,-2.112 1.361,-2.632c0.017,-0.016 0.044,-0.016 0.06,0.001c0.016,0.017 0.015,0.043 -0.002,0.059c-0.387,0.542 -0.503,1.229 -0.401,2.003c0.07,0.531 0.278,1.055 0.597,1.581c0.032,-0.006 0.064,-0.012 0.095,-0.018c-0.011,-0.764 0.101,-1.482 0.366,-2.149c0.415,-1.041 1.036,-1.876 1.924,-2.294c0.019,-0.013 0.045,-0.009 0.058,0.01c0.014,0.019 0.01,0.045 -0.009,0.059c-0.585,0.611 -0.861,1.467 -0.862,2.434c0,0.484 0.112,0.956 0.291,1.447c0.023,0.063 0.049,0.124 0.078,0.183c0.174,-0.026 0.348,-0.05 0.521,-0.074c0.128,-0.702 0.363,-1.358 0.729,-1.953c0.584,-0.949 1.335,-1.697 2.274,-2.042c0.02,-0.012 0.045,-0.005 0.057,0.015c0.012,0.02 0.005,0.045 -0.015,0.057c-0.665,0.574 -1.082,1.409 -1.259,2.372c-0.08,0.435 -0.074,0.873 -0.013,1.326c0.129,-0.69 0.363,-1.334 0.724,-1.92c0.583,-0.95 1.334,-1.698 2.273,-2.043c0.02,-0.012 0.046,-0.005 0.057,0.015c0.012,0.02 0.005,0.046 -0.015,0.057c-0.665,0.574 -1.082,1.409 -1.258,2.372c-0.075,0.404 -0.075,0.812 -0.026,1.23c0.28,-0.717 0.673,-1.38 1.198,-1.958c0.765,-0.843 1.657,-1.49 2.648,-1.754c0.021,-0.009 0.046,-0 0.056,0.021c0.01,0.021 0.001,0.046 -0.02,0.056c-0.76,0.523 -1.342,1.325 -1.724,2.275c-0.187,0.463 -0.286,0.944 -0.327,1.444c0.065,-0.001 0.13,-0.003 0.195,-0.004c0.137,-0.548 0.347,-1.065 0.641,-1.543c0.583,-0.949 1.334,-1.697 2.273,-2.043c0.02,-0.011 0.046,-0.005 0.057,0.015c0.012,0.02 0.006,0.046 -0.014,0.058c-0.666,0.574 -1.083,1.408 -1.259,2.371c-0.069,0.375 -0.074,0.752 -0.035,1.139c0.021,-0 0.041,0 0.062,0.001c0.27,-0.616 0.629,-1.188 1.088,-1.694c0.766,-0.843 1.657,-1.49 2.649,-1.754c0.021,-0.01 0.046,-0 0.056,0.021c0.009,0.021 0,0.046 -0.021,0.055c-0.651,0.449 -1.172,1.103 -1.548,1.879c0.113,-0.12 0.233,-0.235 0.362,-0.345c0.756,-0.647 1.627,-1.122 2.613,-1.254c0.022,-0.007 0.046,0.004 0.053,0.026c0.008,0.022 -0.004,0.046 -0.026,0.054c-0.766,0.431 -1.35,1.087 -1.75,1.87c-0.21,0.412 -0.308,0.843 -0.35,1.293c0.067,0.006 0.135,0.011 0.202,0.017c0.316,-1.024 0.799,-1.927 1.495,-2.654c0.797,-0.832 1.704,-1.42 2.687,-1.559c0.022,-0.007 0.046,0.005 0.053,0.027c0.007,0.022 -0.005,0.046 -0.027,0.053c-0.772,0.415 -1.37,1.161 -1.766,2.098c-0.203,0.477 -0.304,0.985 -0.346,1.528c-0.019,0.248 0.009,0.486 0.045,0.731c0.039,0.005 0.077,0.009 0.115,0.014c0.239,-0.457 0.533,-0.885 0.886,-1.274c0.766,-0.844 1.658,-1.491 2.649,-1.754c0.021,-0.01 0.046,-0 0.056,0.021c0.01,0.021 0,0.046 -0.021,0.055c-0.759,0.523 -1.341,1.326 -1.724,2.275c-0.118,0.294 -0.201,0.595 -0.256,0.902c0.141,0.022 0.282,0.045 0.423,0.068c0.261,-0.486 0.556,-0.949 0.891,-1.383c0.712,-0.922 1.457,-1.652 2.198,-2.013c0.019,-0.013 0.045,-0.009 0.059,0.009c0.014,0.019 0.01,0.045 -0.009,0.059c-0.52,0.554 -0.938,1.421 -1.238,2.454c-0.063,0.215 -0.115,0.432 -0.158,0.652c0.277,-0.205 0.575,-0.395 0.891,-0.566c1.001,-0.541 2.07,-0.922 3.13,-1.008c0.023,-0.006 0.045,0.008 0.051,0.03c0.006,0.023 -0.008,0.046 -0.031,0.051c-0.904,0.393 -1.741,1.033 -2.449,1.814c-0.135,0.149 -0.259,0.301 -0.375,0.457Z"/></svg>