<?xml version="1.0" encoding="UTF-8" standalone="no"?><!DOCTYPE svg PUBLIC "-//W3C//DTD SVG 1.1//EN" "http://www.w3.org/Graphics/SVG/1.1/DTD/svg11.dtd"><svg width="100%" height="100%" viewBox="0 0 27 36" version="1.1" xmlns="http://www.w3.org/2000/svg" xmlns:xlink="http://www.w3.org/1999/xlink" xml:space="preserve" xmlns:serif="http://www.serif.com/" style="fill-rule:evenodd;clip-rule:evenodd;stroke-linejoin:round;stroke-miterlimit:2;"><path d="M26.039,18.163c-1.191,4.473 -2.612,9.364 -2.612,9.364l-3.623,3.485l-3.893,4.917l-10.644,-4.291c-0,0 -2.792,-5.888 -4.847,-11.903c-0.144,-0.422 -0.285,-0.844 -0.42,-1.264c0,-0 0.001,-0 0.001,-0l4.285,-10.384l1.367,1.87l-0.002,0.001l0.278,0.506c0,-0 0.095,0.159 0.234,0.351c0.079,0.109 0.162,0.232 0.264,0.334c0.066,0.065 0.121,0.108 0.192,0.15c0.147,0.085 0.25,0.126 0.314,0.146c-0.288,0.641 -0.557,1.27 -0.782,1.804c-0.361,0.856 -0.592,1.458 -0.592,1.458l-0.049,0.094l0.188,0.098l0.049,-0.094c0,0 0.363,-0.532 0.861,-1.316c0.368,-0.579 0.809,-1.284 1.237,-2.004c0.274,-0.461 0.535,-0.927 0.777,-1.36c0.352,-0.629 0.657,-1.187 0.86,-1.563c0,0 1.952,1.208 1.952,1.208l0.241,-0.606l1.066,-2.609l0.213,-0.536l-0.01,-0.004l3.166,-6.015l1.968,6.057l-0.008,-0.007l-0.36,0.452l-2.362,3.034l-1.406,0.33l-0.113,0.18c0,0 -0.442,0.738 -0.811,1.385c-0.224,0.393 -0.419,0.752 -0.49,0.884c0,-0 -1.138,0.846 -1.138,0.846l-0.033,0.048l-0.765,1.406l-0.06,0.087l0.174,0.121l0.061,-0.087l0.992,-1.146l1.374,-0.716l0.049,-0.078c0,-0 0.294,-0.407 0.615,-0.877c0.29,-0.423 0.602,-0.896 0.768,-1.15c0,-0 1.385,-0.281 1.385,-0.281l0.118,-0.148l2.545,-3.119l0.359,-0.451l-0.017,-0.014l1.601,-1.742l5.482,13.145c0.001,-0 0.002,-0 0.002,-0c0,0.001 -0,0.002 -0,0.003l0,0.001l-0.001,0Zm-19.361,-8.733l2.621,-6.519l2.578,2.694l-0.208,0.523l-0.786,2.025l-1.803,-1.071l-0.26,0.495c0,-0 -0.473,0.918 -1.051,2.101c-0.164,0.335 -0.338,0.69 -0.508,1.053c-0.003,-0.012 -0.005,-0.024 -0.008,-0.037c-0.031,-0.141 -0.091,-0.276 -0.141,-0.402c-0.088,-0.22 -0.172,-0.385 -0.172,-0.385l-0.262,-0.477Z"/></svg>