<?xml version="1.0" encoding="UTF-8" standalone="no"?><!DOCTYPE svg PUBLIC "-//W3C//DTD SVG 1.1//EN" "http://www.w3.org/Graphics/SVG/1.1/DTD/svg11.dtd"><svg width="100%" height="100%" viewBox="0 0 238 278" version="1.1" xmlns="http://www.w3.org/2000/svg" xmlns:xlink="http://www.w3.org/1999/xlink" xml:space="preserve" xmlns:serif="http://www.serif.com/" style="fill-rule:evenodd;clip-rule:evenodd;stroke-linejoin:round;stroke-miterlimit:2;"><path d="M230.167,221.007c1.449,-0.539 2.949,-1.107 4.5,-1.705c-16.823,11.195 -19.728,21.397 -10.477,30.73c-20.922,-8.785 -37.747,1.552 -53.079,18.857c-20.367,11.674 -43.422,11.839 -60.063,-0.699c-26.812,-29.792 -58.343,-44.722 -111.048,-50.285l106.857,9.079c10.007,5.178 19.592,9.067 28.73,11.256c3.513,-15.728 6.718,-41.718 9.754,-72.681c-23.225,10.859 -45.837,24.757 -67.892,41.426c2.389,-10.164 5.277,-20.084 8.834,-29.68c-12.286,6.275 -24.46,13.492 -36.528,21.596c7.785,-38.96 23.923,-69.473 59.482,-84.597c2.295,-24.275 10.64,-47.829 30.559,-70.004c5.543,0.162 10.764,0.791 15.635,1.924c1.266,-15.794 2.531,-31.359 3.807,-46.224c-0.085,14.821 -0.566,29.386 -1.263,43.492c2.931,-4.572 6.36,-9.112 10.361,-13.614c13.596,-0.376 24.253,3.419 31.117,12.593c-7.269,4.479 -14.264,9.577 -21,15.26c2.096,1.862 4.049,3.93 5.854,6.214c-10.059,5.683 -19.664,12.276 -28.842,19.728c-0.21,2.897 -0.421,5.762 -0.633,8.592c0.845,-0.523 1.697,-1.043 2.558,-1.558c27.647,10.602 47.657,27.337 57.818,51.982c-22.37,4.263 -44.184,11.285 -65.484,20.86c-2.731,26.648 -7.757,55.374 -6.103,76.182c16.641,2.141 31.679,-2.133 44.95,-15.541c0.009,0.036 0.018,0.072 0.028,0.107l1.756,-14.509l7.431,-1.146l0.653,-11.849l-11.963,0.159l1.729,-9.77c8.802,-6.85 18.097,-8.845 25.299,-8.717c7.855,0.14 15.398,1.729 24.024,8.832l-1.008,14.128l-7.581,0.164l-0.446,6.953l5.696,0.556l-4.022,11.909Zm-10.015,-32.588l-3.457,-0l0,5.567l3.457,0l0,-5.567Zm10.833,-0l-3.456,-0l-0,5.567l3.456,0l0,-5.567Zm-4.907,-0l-3.457,-0l0,5.567l3.457,0l0,-5.567Zm9.753,-0l-3.456,-0l-0,5.567l3.456,0l0,-5.567Zm-107.699,-75.772c6.947,-6.527 14.724,-12.65 23.445,-18.315c0.215,-2.652 0.43,-5.311 0.644,-7.974c-1.951,1.646 -3.883,3.331 -5.796,5.056c-1.407,1.802 -2.8,3.634 -4.181,5.496c0.02,-0.568 0.044,-1.135 0.07,-1.702c-5.506,5.202 -10.849,10.733 -16.034,16.58c0.624,0.282 1.241,0.568 1.852,0.859Zm86.341,75.772l-3.457,-0l-0,5.567l3.457,0l-0,-5.567Zm-5.309,-0l-3.457,-0l0,5.567l3.457,0l0,-5.567Z"/></svg>