<?xml version="1.0" encoding="UTF-8" standalone="no"?><!DOCTYPE svg PUBLIC "-//W3C//DTD SVG 1.1//EN" "http://www.w3.org/Graphics/SVG/1.1/DTD/svg11.dtd"><svg width="100%" height="100%" viewBox="0 0 31 36" version="1.1" xmlns="http://www.w3.org/2000/svg" xmlns:xlink="http://www.w3.org/1999/xlink" xml:space="preserve" xmlns:serif="http://www.serif.com/" style="fill-rule:evenodd;clip-rule:evenodd;stroke-linejoin:round;stroke-miterlimit:2;"><path d="M29.442,28.27c0.185,-0.069 0.377,-0.142 0.575,-0.218c-2.152,1.432 -2.523,2.737 -1.34,3.931c-2.676,-1.124 -4.828,0.198 -6.789,2.412c-2.606,1.493 -5.555,1.514 -7.683,-0.09c-3.43,-3.81 -7.463,-5.72 -14.205,-6.432l13.669,1.162c1.395,0.431 2.736,0.814 3.905,0.748c0.449,-2.012 0.707,-4.739 1.096,-8.7c-2.971,1.389 -5.942,3.261 -8.763,5.393c0.305,-1.3 0.675,-2.569 1.13,-3.796c-1.572,0.803 -3.129,1.726 -4.673,2.762c0.996,-4.983 3.061,-8.886 7.609,-10.821c0.294,-3.105 1.361,-6.118 3.909,-8.954c0.709,0.02 1.377,0.101 2,0.246c0.162,-2.021 0.324,-4.012 0.487,-5.913c-0.011,1.896 -0.073,3.759 -0.162,5.563c0.375,-0.585 0.814,-1.165 1.326,-1.741c1.739,-0.048 3.102,0.437 3.98,1.611c-0.93,0.573 -1.825,1.225 -2.686,1.952c0.268,0.238 0.518,0.502 0.749,0.795c-1.287,0.726 -2.516,1.57 -3.69,2.523c-0.027,0.371 -0.054,0.737 -0.081,1.099c0.108,-0.067 0.217,-0.133 0.328,-0.199c3.536,1.356 6.095,3.497 7.395,6.649c-2.861,0.545 -5.72,1.479 -8.444,2.704c-0.307,3.228 -0.693,5.898 -0.559,8.826c2.704,0.159 4.167,-0.234 5.596,-1.105c0.001,0.005 0.002,0.009 0.004,0.014l0.224,-1.856l0.951,-0.147l0.083,-1.515l-1.53,0.02l0.221,-1.25c1.126,-0.876 2.315,-1.131 3.236,-1.115c1.005,0.018 1.97,0.221 3.073,1.13l-0.129,1.807l-0.969,0.021l-0.057,0.89l0.728,0.071l-0.514,1.523Zm-1.281,-4.168l-0.443,-0l0,0.712l0.443,-0l-0,-0.712Zm1.385,-0l-0.442,-0l0,0.712l0.442,-0l0,-0.712Zm-0.627,-0l-0.442,-0l-0,0.712l0.442,-0l-0,-0.712Zm1.247,-0l-0.442,-0l0,0.712l0.442,-0l0,-0.712Zm-13.776,-9.693c0.889,-0.835 1.883,-1.618 2.999,-2.343c0.027,-0.339 0.055,-0.679 0.082,-1.02c-0.249,0.211 -0.496,0.427 -0.741,0.647c-0.18,0.231 -0.358,0.465 -0.535,0.703c0.003,-0.072 0.006,-0.145 0.009,-0.218c-0.704,0.666 -1.388,1.373 -2.051,2.121c0.08,0.036 0.159,0.073 0.237,0.11Zm11.044,9.693l-0.442,-0l0,0.712l0.442,-0l0,-0.712Zm-0.679,-0l-0.442,-0l-0,0.712l0.442,-0l0,-0.712Z"/></svg>