<?xml version="1.0" encoding="UTF-8" standalone="no"?><!DOCTYPE svg PUBLIC "-//W3C//DTD SVG 1.1//EN" "http://www.w3.org/Graphics/SVG/1.1/DTD/svg11.dtd"><svg width="100%" height="100%" viewBox="0 0 29 38" version="1.1" xmlns="http://www.w3.org/2000/svg" xmlns:xlink="http://www.w3.org/1999/xlink" xml:space="preserve" xmlns:serif="http://www.serif.com/" style="fill-rule:evenodd;clip-rule:evenodd;stroke-linejoin:round;stroke-miterlimit:2;"><path d="M3.216,15.88l-0.252,-1.116l-2.964,0.655l1.213,-3.274l-0.851,0.174l1.161,-2.654l-0.542,0.076l1.091,-3.704l2.272,2.873l-0.418,0.28l2.09,1.8l-0.853,0.321l1.013,1.017l2.219,-3.808l-1.283,0.049l2.333,-3.517l-0.808,-0.018l2.485,-5.034l2.615,4.634l-0.677,0.301l2.609,3.059l-1.319,0.259l1.735,2.382l2.238,-2.864l-0.872,-0.151l2.137,-2.449l-0.542,-0.134l2.483,-3.631l1.021,4.07l-0.505,0.139l1.269,2.818l-0.931,0.009l0.532,1.453l1.672,-1.568l-0.533,-0.143l2.468,-2.981l0.983,3.536l-0.499,0.093l1.235,2.477l-0.917,-0.039l1.298,3.194l-2.915,-0.694l-0.338,1.821c0.697,0.14 1.391,0.291 2.08,0.45c-1.191,4.472 -5.426,13.118 -5.426,13.118l-4.56,2.782l-2.957,5.619l-7.831,-8.04c0,0 -2.792,-5.888 -4.847,-11.903c-0.144,-0.422 -0.284,-0.843 -0.42,-1.264c0.609,-0.17 1.211,-0.328 1.808,-0.473Zm3.495,-3.016l0.879,0.883l-2.929,0.493l0.277,1.252c1.884,-0.39 3.712,-0.657 5.492,-0.819l-0.119,-2.004l-3.6,0.195Zm9.599,-1.92l0.986,1.354l-4.385,0.02l0.118,2.191c1.858,-0.067 3.665,-0.022 5.431,0.112l0.491,-3.269l-2.641,-0.408Zm6.807,-0.498l0.069,0.19l0.14,-0.147l-0.209,-0.043Zm-0.991,1.306l-1.366,-0.293l-0.514,3.329c1.14,0.126 2.264,0.287 3.375,0.478l0.304,-1.68l-3.011,-0.56l1.212,-1.274Z"/></svg>